<?xml version="1.0" encoding="utf-8"?>
<!-- Generator: Adobe Illustrator 16.0.0, SVG Export Plug-In . SVG Version: 6.00 Build 0)  -->
<!DOCTYPE svg PUBLIC "-//W3C//DTD SVG 1.1//EN" "http://www.w3.org/Graphics/SVG/1.1/DTD/svg11.dtd">
<svg version="1.1" xmlns="http://www.w3.org/2000/svg" xmlns:xlink="http://www.w3.org/1999/xlink" x="0px" y="0px"
	 width="555.653px" height="407.826px" viewBox="0 0 555.653 407.826" enable-background="new 0 0 555.653 407.826"
	 xml:space="preserve">
<g id="BACKGROUND" display="none">
	<rect x="-88.304" y="-43.435" display="inline" fill="#FFFFFF" width="750" height="500"/>
</g>
<g id="OBJECTS">
	<g>
		<g>
			<g>
				<path fill="none" stroke="#C0CCD8" stroke-miterlimit="10" d="M281.133,108.821h-117.34c-1.771,0-3.206-1.435-3.206-3.206
					V37.276c0-1.771,1.435-3.206,3.206-3.206h117.34c1.771,0,3.206,1.435,3.206,3.206v68.339
					C284.338,107.386,282.903,108.821,281.133,108.821z"/>
				<line fill="none" stroke="#C0CCD8" stroke-miterlimit="10" x1="160.587" y1="47.615" x2="284.338" y2="47.615"/>
				<circle fill="none" stroke="#C0CCD8" stroke-miterlimit="10" cx="168.58" cy="40.917" r="1.978"/>
				<circle fill="none" stroke="#C0CCD8" stroke-miterlimit="10" cx="176.718" cy="40.917" r="1.978"/>
				<circle fill="none" stroke="#C0CCD8" stroke-miterlimit="10" cx="184.856" cy="40.917" r="1.978"/>
			</g>
			<g>
				<g>
					<g>
						<path fill="none" stroke="#C0CCD8" stroke-linejoin="round" stroke-miterlimit="10" d="M95.667,116.641h29.263
							c2.828,0,5.12-2.292,5.12-5.12V82.258c0-2.828-2.292-5.12-5.12-5.12H95.667c-2.828,0-5.12,2.292-5.12,5.12v29.263
							C90.547,114.349,92.84,116.641,95.667,116.641z"/>
					</g>
					<g>
						<circle fill="none" stroke="#C0CCD8" stroke-width="3" stroke-miterlimit="10" cx="110.299" cy="96.89" r="11.314"/>
						
							<line fill="none" stroke="#C0CCD8" stroke-width="3" stroke-miterlimit="10" x1="117.938" y1="88.902" x2="101.964" y2="104.876"/>
					</g>
				</g>
			</g>
			<path fill="#FFFFFF" stroke="#C0CCD8" stroke-linejoin="round" stroke-miterlimit="10" d="M391.934,107.655l-8.193-8.491H257.654
				c-5.9,0-10.683-4.783-10.683-10.683V22.925c0-5.9,4.783-10.683,10.683-10.683h126.652c5.9,0,10.684,4.783,10.684,10.683v83.496
				C394.99,108.019,393.044,108.805,391.934,107.655z"/>
			<g>
				<g>
					<path fill="#F76652" d="M297.654,69.856h-5.424v9.535h-13.14v-9.535h-19.642v-9.771l20.484-29.952h12.298v29.783h5.424V69.856z
						 M279.09,59.917v-5.728c0-1.078,0.039-2.532,0.118-4.363c0.078-1.83,0.14-2.791,0.185-2.88h-0.371
						c-0.764,1.73-1.629,3.347-2.594,4.852l-5.458,8.12H279.09z"/>
					<path fill="#F76652" d="M338.703,54.83c0,8.715-1.461,15.1-4.38,19.154c-2.92,4.054-7.391,6.081-13.409,6.081
						c-5.885,0-10.321-2.117-13.309-6.351s-4.48-10.529-4.48-18.884c0-8.76,1.46-15.183,4.38-19.271
						c2.919-4.088,7.39-6.132,13.409-6.132c5.862,0,10.293,2.128,13.291,6.384C337.204,40.067,338.703,46.407,338.703,54.83z
						 M316.365,54.83c0,5.571,0.349,9.4,1.045,11.489c0.695,2.089,1.864,3.133,3.504,3.133c1.662,0,2.835-1.078,3.521-3.234
						c0.685-2.156,1.027-5.952,1.027-11.388c0-5.458-0.349-9.282-1.044-11.472c-0.696-2.189-1.865-3.285-3.504-3.285
						c-1.64,0-2.809,1.056-3.504,3.167C316.713,45.351,316.365,49.215,316.365,54.83z"/>
					<path fill="#F76652" d="M382.513,69.856h-5.424v9.535h-13.14v-9.535h-19.643v-9.771l20.484-29.952h12.298v29.783h5.424V69.856z
						 M363.95,59.917v-5.728c0-1.078,0.039-2.532,0.118-4.363c0.078-1.83,0.14-2.791,0.185-2.88h-0.37
						c-0.764,1.73-1.629,3.347-2.595,4.852l-5.458,8.12H363.95z"/>
				</g>
			</g>
			<g>
				<g>
					<g>
						<path fill="none" stroke="#C0CCD8" stroke-linejoin="round" stroke-miterlimit="10" d="M510.745,231.653h29.263
							c2.828,0,5.12-2.292,5.12-5.12V197.27c0-2.828-2.292-5.12-5.12-5.12h-29.263c-2.828,0-5.12,2.292-5.12,5.12v29.263
							C505.625,229.361,507.917,231.653,510.745,231.653z"/>
					</g>
					<g>
						<g>
							<path fill="#C0CCD8" d="M538.108,222.996c-0.149,0.052-0.31,0.08-0.473,0.08l-24.518,0.009c-0.512,0-0.99-0.275-1.245-0.719
								c-0.257-0.443-0.257-0.994-0.001-1.438l12.252-21.237c0.255-0.443,0.729-0.719,1.244-0.72c0.512,0,0.988,0.275,1.245,0.718
								l12.267,21.229c0.257,0.444,0.257,0.994,0.001,1.438C538.706,222.659,538.429,222.883,538.108,222.996z M513.792,221.257
								l23.167-0.008l-11.591-20.059L513.792,221.257z"/>
						</g>
						<path fill="#C0CCD8" d="M525.375,217.036L525.375,217.036c-0.465,0-0.847-0.365-0.867-0.828l-0.497-8.356
							c-0.035-0.775,0.584-1.423,1.36-1.423l0,0c0.775,0,1.395,0.647,1.36,1.422l-0.49,8.356
							C526.22,216.671,525.838,217.036,525.375,217.036z"/>
						<circle fill="#C0CCD8" cx="525.375" cy="219.052" r="0.884"/>
					</g>
				</g>
			</g>
			
				<circle fill="none" stroke="#C0CCD8" stroke-linecap="round" stroke-linejoin="round" stroke-miterlimit="10" cx="5.909" cy="161.067" r="2.228"/>
			
				<circle fill="none" stroke="#C0CCD8" stroke-linecap="round" stroke-linejoin="round" stroke-miterlimit="10" cx="380.285" cy="279.879" r="2.229"/>
			
				<circle fill="none" stroke="#C0CCD8" stroke-linecap="round" stroke-linejoin="round" stroke-miterlimit="10" cx="533.409" cy="96.89" r="2.228"/>
			
				<circle fill="none" stroke="#C0CCD8" stroke-linecap="round" stroke-linejoin="round" stroke-miterlimit="10" cx="413.129" cy="27.97" r="2.229"/>
			<g>
				
					<line fill="none" stroke="#C0CCD8" stroke-linecap="round" stroke-linejoin="round" stroke-miterlimit="10" x1="531.181" y1="169.769" x2="531.181" y2="176.669"/>
				
					<line fill="none" stroke="#C0CCD8" stroke-linecap="round" stroke-linejoin="round" stroke-miterlimit="10" x1="534.631" y1="173.219" x2="527.731" y2="173.219"/>
			</g>
			<g>
				
					<line fill="none" stroke="#C0CCD8" stroke-linecap="round" stroke-linejoin="round" stroke-miterlimit="10" x1="350.796" y1="302.707" x2="350.796" y2="309.607"/>
				
					<line fill="none" stroke="#C0CCD8" stroke-linecap="round" stroke-linejoin="round" stroke-miterlimit="10" x1="354.247" y1="306.157" x2="347.346" y2="306.157"/>
			</g>
			<g>
				
					<line fill="none" stroke="#C0CCD8" stroke-linecap="round" stroke-linejoin="round" stroke-miterlimit="10" x1="204.858" y1="15.242" x2="204.858" y2="22.143"/>
				
					<line fill="none" stroke="#C0CCD8" stroke-linecap="round" stroke-linejoin="round" stroke-miterlimit="10" x1="208.309" y1="18.692" x2="201.408" y2="18.692"/>
			</g>
			<g>
				
					<line fill="none" stroke="#C0CCD8" stroke-linecap="round" stroke-linejoin="round" stroke-miterlimit="10" x1="50.392" y1="81.94" x2="50.392" y2="88.841"/>
				
					<line fill="none" stroke="#C0CCD8" stroke-linecap="round" stroke-linejoin="round" stroke-miterlimit="10" x1="53.842" y1="85.391" x2="46.941" y2="85.391"/>
			</g>
			<g>
				
					<line fill="none" stroke="#C0CCD8" stroke-linecap="round" stroke-linejoin="round" stroke-miterlimit="10" x1="39.161" y1="240.813" x2="39.161" y2="247.715"/>
				
					<line fill="none" stroke="#C0CCD8" stroke-linecap="round" stroke-linejoin="round" stroke-miterlimit="10" x1="42.61" y1="244.265" x2="35.71" y2="244.265"/>
			</g>
			<g>
				
					<line fill="none" stroke="#C0CCD8" stroke-linecap="round" stroke-linejoin="round" stroke-miterlimit="10" x1="430.31" y1="54.312" x2="430.31" y2="61.212"/>
				
					<line fill="none" stroke="#C0CCD8" stroke-linecap="round" stroke-linejoin="round" stroke-miterlimit="10" x1="433.76" y1="57.762" x2="426.86" y2="57.762"/>
			</g>
			<path fill="none" stroke="#C0CCD8" stroke-miterlimit="10" d="M90.499,201.527h-69.05c-1.207,0-2.185-0.978-2.185-2.184l0,0
				c0-1.207,0.978-2.185,2.185-2.185h69.05c1.207,0,2.185,0.978,2.185,2.185l0,0C92.684,200.549,91.706,201.527,90.499,201.527z"/>
			<path fill="none" stroke="#C0CCD8" stroke-miterlimit="10" d="M497.062,146.386h-69.051c-1.206,0-2.185-0.978-2.185-2.185l0,0
				c0-1.207,0.979-2.185,2.185-2.185h69.051c1.206,0,2.185,0.978,2.185,2.185l0,0C499.247,145.408,498.268,146.386,497.062,146.386z
				"/>
			<path fill="#C0CCD8" d="M507.17,161.067h-25.525c-0.604,0-1.093-0.489-1.093-1.092l0,0c0-0.603,0.489-1.092,1.093-1.092h25.525
				c0.603,0,1.092,0.489,1.092,1.092l0,0C508.262,160.578,507.773,161.067,507.17,161.067z"/>
			<path fill="#C0CCD8" d="M439.623,109.032h-25.525c-0.603,0-1.092-0.489-1.092-1.092l0,0c0-0.603,0.489-1.092,1.092-1.092h25.525
				c0.604,0,1.093,0.489,1.093,1.092l0,0C440.715,108.543,440.226,109.032,439.623,109.032z"/>
			<path fill="#C0CCD8" d="M64.834,182.223H45.309c-0.603,0-1.092-0.489-1.092-1.092l0,0c0-0.603,0.489-1.092,1.092-1.092h19.525
				c0.603,0,1.092,0.489,1.092,1.092l0,0C65.927,181.733,65.438,182.223,64.834,182.223z"/>
			<g>
				<path fill="none" stroke="#C0CCD8" stroke-linejoin="round" stroke-miterlimit="10" d="M458.946,85.845h21.14
					c2.043,0,3.699-1.656,3.699-3.698v-21.14c0-2.042-1.656-3.699-3.699-3.699h-21.14c-2.043,0-3.698,1.656-3.698,3.699v21.14
					C455.248,84.189,456.903,85.845,458.946,85.845z"/>
				<g>
					<g>
						<path fill="#C0CCD8" d="M473.557,70.372l-0.496,2.451h2.727v2.177h-3.139l-0.813,4.289h-2.325l0.824-4.289h-3.003
							l-0.803,4.289h-2.271l0.782-4.289h-2.515v-2.177h2.926l0.496-2.451h-2.661v-2.208h3.053l0.813-4.299h2.314l-0.813,4.299h3.045
							l0.823-4.299h2.271l-0.823,4.299h2.536v2.208H473.557z M467.745,72.822h3.023l0.497-2.451h-3.024L467.745,72.822z"/>
					</g>
				</g>
			</g>
		</g>
		<g>
			<g>
				<path fill="#475577" d="M229.194,283.287l-20.048-131.495h-90.297l21.645,139.337c1.467,9.441,9.34,16.089,19.056,16.089
					h151.833l1.116-12.767h-70.121C235.644,294.451,230.193,289.834,229.194,283.287z"/>
				<path fill="#717A91" d="M143.732,283.287L124.426,156.66c-0.435-2.855-2.812-4.868-5.748-4.868h-0.177
					c-4.113,0-7.477,3.85-6.856,7.847l20.426,131.49c1.467,9.441,9.34,16.089,19.057,16.089h97.792l1.117-12.767h-93.122
					C150.182,294.451,144.73,289.834,143.732,283.287z"/>
				<g>
					<g>
						<g>
							
								<line fill="none" stroke="#544943" stroke-width="1.5" stroke-miterlimit="10" x1="204.858" y1="307.218" x2="204.858" y2="378.994"/>
						</g>
						<g>
							<g>
								<path fill="none" stroke="#544943" stroke-width="1.5" stroke-miterlimit="10" d="M164.622,385.335L164.622,385.335
									c0-3.502,2.839-6.341,6.34-6.341h67.792c3.502,0,6.341,2.839,6.341,6.341l0,0"/>
							</g>
							<g>
								<path fill="none" stroke="#544943" stroke-width="1.5" stroke-miterlimit="10" d="M197.921,385.335L197.921,385.335
									c0-3.502,2.839-6.341,6.341-6.341"/>
							</g>
							<g>
								<g>
									<circle fill="#717A91" cx="164.622" cy="391.736" r="6.402"/>
								</g>
								<g opacity="0.45">
									<circle fill="#8E9DB2" cx="164.622" cy="391.736" r="2.351"/>
								</g>
							</g>
							<g>
								<circle fill="#717A91" cx="197.922" cy="391.736" r="6.402"/>
							</g>
							<g opacity="0.45">
								<circle fill="#8E9DB2" cx="197.922" cy="391.736" r="2.351"/>
							</g>
							<g>
								<g>
									<circle fill="#717A91" cx="245.094" cy="391.736" r="6.402"/>
								</g>
								<g opacity="0.45">
									<circle fill="#8E9DB2" cx="245.094" cy="391.736" r="2.351"/>
								</g>
							</g>
						</g>
					</g>
				</g>
			</g>
			<g>
				<g>
					<path fill="#FFCBBB" d="M275.433,165.907l22.887-34.194l7.091,1.477c-5.418,18.251-8.998,25.472-8.998,25.472"/>
					<path fill="#FFCBBB" d="M301.763,138.851l3.647-5.661c0,0,6.791-1.563,9.259-2.822c2.467-1.259,4.112-3.493,4.8-5.378
						c0.527-1.446,0.298-5.691-0.32-5.759c-1.46-0.161-4.372,5.279-5.735,5.603c-1.363,0.324-5.785-0.012-8.216,0.306
						c-4.094,0.536-5.819,4.371-5.819,4.371l-3.741,6.786"/>
					<polyline fill="#E6E8EF" points="290.391,141.726 294.41,135.899 304.804,140.564 301.503,149.415 					"/>
					<path fill="#B9B5B2" d="M206.891,129.536c0,0,16.945-7.796,31.872,5.481s25.026,25.615,30.506,29.607l22.486-25.867
						l12.562,5.896c-3.312,18.734-12.606,48.611-35.353,51.687c-24.61,3.328-60.696-27.006-60.696-27.006"/>
					<line fill="none" stroke="#846A6A" stroke-miterlimit="10" x1="261.971" y1="173.219" x2="269.268" y2="164.625"/>
				</g>
				<path fill="#173789" d="M297.923,387.325l-1.9,7.305c-0.462,1.775,0.878,3.508,2.712,3.508h22.141
					c1.331,0,2.41-1.079,2.41-2.411l0,0c0-1.049-0.679-1.978-1.678-2.296l-15.133-6.105"/>
				<path fill="#FFCBBB" d="M285.162,273.185c-3.535,37.15,12.762,114.141,12.762,114.141s3.872,4.68,8.552,0
					c0,0,3.926-73.406,8.063-106.409"/>
				<path fill="#FCA32D" d="M232.348,229.668l25.407,13.325v0.26c0,0,51.854-3.48,59.696,15.031
					c12.278,28.986,14.368,123.271,14.368,123.271h-37.951c0,0-14.125-79.193-18.953-84.022c-4.829-4.828-24.742-4.474-61.357-4.474
					c-41.129,0-21.052-53.029-5.739-57.58"/>
				<path fill="none" stroke="#CE680D" stroke-miterlimit="10" d="M296.497,381.555c0,0-11.278-81.716-19.568-87.709
					c-10.122-7.317-57.916-2.538-57.916-2.538"/>
				<path fill="#173789" d="M218.343,387.325l-1.9,7.305c-0.461,1.775,0.878,3.508,2.712,3.508h22.14
					c1.332,0,2.411-1.079,2.411-2.411l0,0c0-1.049-0.678-1.978-1.678-2.296l-15.132-6.105"/>
				<path fill="#FFCBBB" d="M222.03,273.185c-3.535,37.15-3.687,114.141-3.687,114.141s3.873,4.68,8.553,0
					c0,0,13.32-73.406,17.457-106.409"/>
				<g>
					<path fill="#FFB548" d="M187.53,241.335c0,0,66.651,1.074,75.37,21.27c10.722,24.835-6.951,118.95-6.951,118.95h-40.175
						v-84.198c0-1.634-1.275-3.099-2.909-3.055c-5.563,0.149-17.977,0.149-33.74,0.149c-41.129,0-21.052-64.011-5.739-68.562"/>
					<path fill="none" stroke="#CE680D" stroke-miterlimit="10" d="M187.53,241.335c0,0,66.651,1.074,75.37,21.27
						c2.906,6.73,4.416,18.19,3.639,31.847"/>
					<path fill="none" stroke="#ED841B" stroke-miterlimit="10" d="M221.375,381.555c0,0,0.408-84.523-1.532-89.038
						c-2.696-6.274-11.909-3.193-33.274-3.193c-41.129,0-24.374-58.883-9.061-63.434"/>
					<path fill="none" stroke="#ED841B" stroke-miterlimit="10" d="M161.923,251.625c0,0,21.115,0.512,24.314-2.688
						s0-17.701,0-17.701"/>
					<path fill="none" stroke="#ED841B" stroke-miterlimit="10" stroke-dasharray="3,2" d="M161.406,254.459
						c0,0,24.106,0.512,27.759-2.692c3.652-3.203,0-17.727,0-17.727"/>
				</g>
				<g>
					<path fill="#B9B5B2" d="M157.335,153.355c0,0-5.06,89.897,2.601,89.897c7.661,0,92.827-0.26,97.819-0.26
						s-6.688-76.878-23.512-93.118c0,0-24.95-27.072-35.944-24.479C187.305,127.99,157.335,153.355,157.335,153.355z"/>
					<line fill="none" stroke="#846A6A" stroke-miterlimit="10" x1="252.348" y1="194.246" x2="241.772" y2="150.895"/>
				</g>
				<g>
					<path fill="#FFCBBB" d="M114.251,169.636l-22.887-34.194l-7.091,1.477c5.418,18.251,8.998,25.472,8.998,25.472"/>
					<path fill="#FFCBBB" d="M87.921,142.58l-3.648-5.661c0,0-6.791-1.563-9.258-2.822c-2.467-1.26-4.113-3.493-4.8-5.378
						c-0.527-1.446-0.298-5.691,0.32-5.76c1.46-0.16,4.373,5.28,5.735,5.603c1.363,0.324,5.785-0.012,8.215,0.306
						c4.094,0.536,5.82,4.37,5.82,4.37l3.741,6.786"/>
					<polyline fill="#E6E8EF" points="99.293,145.455 95.274,139.628 84.88,144.293 88.181,153.144 					"/>
					<path fill="#B9B5B2" d="M188.806,130.05c0,0-16.746-11.91-34.043,2.717c-16.119,13.631-26.856,41.142-30.462,41.142
						c-2.501,0-18.01-19.778-27.268-31.884l-11.014,5.886c6.94,21.193,22.072,57.242,44.714,57.242
						c17.765,0,54.24-41.611,54.24-41.611"/>
					<line fill="none" stroke="#846A6A" stroke-miterlimit="10" x1="155.876" y1="191.845" x2="182.869" y2="169.335"/>
				</g>
				<g>
					<polyline fill="#E6E8EF" stroke="#846A6A" stroke-linejoin="round" stroke-miterlimit="10" points="190.418,132.172 
						206.513,149.415 208.62,129.481 					"/>
					<path fill="#FFCBBB" d="M203.344,114.767l4.527,9.921c0,0,1.824,5.685-5.723,8.26c-8.271,2.823-13.343-2.897-13.343-2.897
						l-1.193-15.569"/>
					<path fill="#FFFFFF" d="M188.372,124.379c0,0,5.956,7.465,13.777,8.569l-5.681,8.428c-4.604-2.594-10.23-12.655-10.23-12.655
						L188.372,124.379z"/>
					<path fill="#FFFFFF" d="M207.396,123.327c0,0-0.954,5.328-5.248,9.621l6.471,4.891c1.487-3.661,1.316-9.36,1.316-9.36
						L207.396,123.327z"/>
					<path fill="#FFCBBB" d="M210.052,98.745c0,0,4.274,16.363-2.142,20.5s-17.577-2.157-18.22-4.211
						c-0.643-2.054-3.559-19.523,0.627-20.833C197.757,91.871,207.868,91.77,210.052,98.745z"/>
					<g>
						<g>
							<circle fill="#173789" cx="209.102" cy="104.245" r="0.835"/>
							<g>
								<path fill="#173789" d="M208.486,99.178c0.282,0.041,1.538,0.17,1.272,0.792c-0.118,0.275-0.558,0.269-0.8,0.254
									c-0.257-0.015-0.523-0.053-0.759,0.033c0.066,0.073,0.121,0.16,0.159,0.254c0.075,0.186-0.543,0.205-0.612,0.206
									c-0.616,0.001-1.361-0.115-2.111,0.388C206.119,99.333,208.026,99.11,208.486,99.178z"/>
							</g>
							<circle fill="#173789" cx="200.464" cy="106.273" r="0.834"/>
							<g>
								<path fill="#173789" d="M197.158,103.015c-0.603,0.324-1.105,0.763-0.97,1.264c0.108,0.401,0.503,0.296,0.748,0.102
									c0.406-0.322,0.872-0.571,1.365-0.729c-0.22,0.18-0.347,0.467-0.332,0.751c1.559-0.153,2.917-1.499,3.085-3.055
									c-0.012,0.112-1.021,0.734-1.168,0.802C199.007,102.555,198.033,102.543,197.158,103.015z"/>
							</g>
						</g>
						<path fill="none" stroke="#EF977F" stroke-miterlimit="10" d="M205.756,105.03c0,0,2.278,5.741,1.465,6.241
							c-0.813,0.501-3.673,0.428-3.673,0.428"/>
					</g>
					<path fill="none" stroke="#EF977F" stroke-miterlimit="10" d="M205.843,120.193c0,0-6.504,2.515-12.208-2.053"/>
					<path fill="none" stroke="#EF977F" stroke-miterlimit="10" d="M202.149,116.352c0,0,0.578-2.531,4.742-2.531"/>
					<g>
						<path fill="#173789" d="M213.67,89.962c-0.065-0.776-0.192-1.605-0.726-2.173c-0.614-0.653-1.596-0.78-2.492-0.787
							c-3.137-0.023-6.273,0.978-8.817,2.813c0.697-0.606,1.394-1.213,2.093-1.821c0.553-0.48,1.789-1.238,1.193-2.135
							c-0.524-0.79-2.014-0.341-2.773-0.35c-3.579-0.044-7.035,1.234-10.329,2.497c-1.625,0.623-3.261,1.257-4.73,2.19
							c-1.469,0.933-2.779,2.196-3.486,3.787c-0.619,1.394-0.745,2.956-0.734,4.481c0.02,2.742,0.45,5.463,0.879,8.171
							c0.468,2.953,1.177,8.774,5.144,9.128c0.769,0.068,1.612,0.117,2.236-0.337c0.616-0.448,0.834-1.26,0.926-2.016
							c0.15-1.232,0.063-2.489-0.233-3.695c0.744,0.403,1.446,1.076,2.28,0.955c0.275-0.04,0.555-0.192,0.654-0.452
							c0.063-0.166,0.044-0.35,0.025-0.525c-0.31-2.828-0.479-5.641-0.661-8.481c4.06-0.858,8.144-1.598,12.247-2.216
							c1.82-0.274,3.747-0.57,5.159-1.75C213.546,95.556,213.892,92.586,213.67,89.962z"/>
					</g>
					<g>
						<path fill="#FFCBBB" d="M192.694,110.81c-0.674-1.665-1.852-3.669-3.696-2.54c-0.652,0.399-1.015,1.252-1.27,2.078
							c-0.845,2.748,1.126,6.985,3.824,6.593c1.315-0.191,2.044-1.752,2.58-3.039"/>
					</g>
				</g>
			</g>
		</g>
		<g>
			<g>
				<path fill="#8EBCA2" d="M437.849,289.457c-0.011-8.906,3.802-17.754,10.283-23.862c3.195-3.012,7.02-5.337,11.136-6.855
					c2.323-0.855,13.45-1.694,13.45-1.694s-1.296,8.491-3.513,12.77C464.039,279.792,453.82,288.179,437.849,289.457"/>
			</g>
			<g>
				<path fill="#A2CCB6" d="M470.576,314.802c4.021-4.934,9.836-8.372,16.096-9.522c6.261-1.149,12.917-0.001,18.43,3.182
					c0.18,0.104,0.373,0.229,0.422,0.431c0.058,0.239-0.115,0.467-0.279,0.65c-5.171,5.791-13.188,8.912-20.913,8.142
					C480.938,317.346,473.818,315.856,470.576,314.802"/>
			</g>
			<g>
				<path fill="#8EBCA2" d="M479.516,301.258c0.008-7.767,2.59-14.737,7.148-19.299c4.559-4.563,11.057-6.679,17.991-5.86
					c0.225,0.027,0.479,0.072,0.66,0.279c0.216,0.246,0.228,0.598,0.215,0.894c-0.396,9.35-5.084,17.091-12.233,20.197
					C490.157,298.833,483.026,300.797,479.516,301.258"/>
			</g>
			<g>
				<path fill="#A2CCB6" d="M491.574,287.367c3.076-4.955,6.818-9.496,11.096-13.462c1.72-1.595,3.541-3.107,5.606-4.217
					c6.689-3.593,14.94-2.48,22.133-0.048c-2.859,5.434-6.591,10.751-12.078,13.505c-2.428,1.218-5.092,1.877-7.742,2.468
					C505.326,286.784,496.92,286.67,491.574,287.367"/>
			</g>
			<g>
				<path fill="#8EBCA2" d="M487.75,274.397c-13.383-7.01-15.359-21.63-15.697-27.038c-0.211-3.388,0.01-7.155,2.833-9.596
					C491.468,243.602,495.701,254.826,487.75,274.397"/>
			</g>
			<g>
				<path fill="#8EBCA2" d="M430.084,272.29c1.037-7.122,1.997-14.771-1.242-21.198c-1.161-2.304-2.814-4.326-4.612-6.177
					c-4.353-4.479-10.046-8.183-16.292-8.192c-1.122,6.671,0.233,13.73,3.746,19.511c3.514,5.781,9.155,10.236,15.594,12.313"/>
			</g>
			<g>
				<path fill="#A2CCB6" d="M469.002,318.861c-7.461-2.493-13.799-8.172-17.093-15.316c-3.294-7.144-3.497-15.651-0.548-22.944
					c0.131-0.323,0.304-0.68,0.636-0.786c0.315-0.101,0.648,0.064,0.936,0.229C464.477,286.679,472.375,305.981,469.002,318.861"/>
			</g>
			<g>
				<path fill="#A2CCB6" d="M437.635,279.533c-2.154-6.228-2.04-13.213,0.317-19.367c2.357-6.153,6.94-11.428,12.704-14.621
					c2.349-1.302,4.904-2.282,6.987-3.977c0.706,3.129,1.181,6.311,1.419,9.51c0.236,3.164,0.234,6.392-0.606,9.452
					c-2.171,7.908-9.46,13.285-16.783,16.978"/>
			</g>
			<g>
				<path fill="#A2CCB6" d="M427.966,278.333c-12.018,1.456-26.815-3.394-33.238-14.714
					C415.276,253.175,427.966,269.153,427.966,278.333"/>
			</g>
			<g>
				<path fill="#A2CCB6" d="M434.977,305.147c-2.694-9.229-9.786-16.799-18.329-19.564c-8.543-2.767-18.294-0.649-25.201,5.471
					c-0.287,0.254-0.596,0.579-0.569,0.98c0.016,0.238,0.15,0.445,0.283,0.637c4.593,6.64,11.92,10.562,19.414,12.215
					s15.231,1.258,22.86,0.687"/>
			</g>
			<g>
				<g>
					<path fill="#597F6E" d="M419.527,255.939c6.233,6.227,10.12,14.128,13.024,22.354c3.007,8.513,5.2,17.331,6.949,26.182
						c3.688,18.669,4.664,37.565,6.812,56.426c0.031,0.268,0.442,0.282,0.43,0c-0.822-19.205-2.886-38.697-6.712-57.543
						c-1.868-9.199-4.218-18.395-7.575-27.173c-2.899-7.581-6.791-14.811-12.724-20.45
						C419.596,255.606,419.395,255.808,419.527,255.939L419.527,255.939z"/>
				</g>
			</g>
			<g>
				<g>
					<path fill="#597F6E" d="M441.626,312.89c-4.611-7.473-12.265-11.888-20.207-15.116c-8.881-3.61-18.952-5.874-28.583-5.226
						c-0.235,0.016-0.238,0.356,0,0.367c17.524,0.782,37.58,5.026,48.365,20.223C441.381,313.392,441.795,313.164,441.626,312.89
						L441.626,312.89z"/>
				</g>
			</g>
			<g>
				<g>
					<path fill="#597F6E" d="M437.99,295.347c-0.075-7.042-0.813-14.098,0.574-21.068c1.29-6.479,3.876-12.348,7.75-17.688
						c0.112-0.154-0.138-0.346-0.264-0.203c-9.406,10.575-9.516,25.698-8.287,38.959
						C437.777,295.489,437.992,295.495,437.99,295.347L437.99,295.347z"/>
				</g>
			</g>
			<g>
				<g>
					<path fill="#597F6E" d="M410.102,267.484c5.144,0.64,9.687,4.094,13.573,7.285c3.873,3.181,7.33,6.835,11.188,10.021
						c0.156,0.129,0.376-0.078,0.227-0.227c-3.892-3.892-8.066-7.662-12.421-11.029c-3.657-2.828-7.834-5.716-12.567-6.152
						C410.037,267.377,410.039,267.477,410.102,267.484L410.102,267.484z"/>
				</g>
			</g>
			<g>
				<g>
					<path fill="#597F6E" d="M464.32,336.468c2.814-14.625,8.7-28.01,18.461-39.369c4.705-5.477,10.123-10.346,16.098-14.401
						c6.27-4.255,12.96-7.152,20.017-9.814c0.287-0.107,0.179-0.547-0.129-0.467c-14.192,3.696-27.27,13.504-36.637,24.542
						c-9.346,11.015-16.438,24.999-18.179,39.46C463.926,336.627,464.28,336.675,464.32,336.468L464.32,336.468z"/>
				</g>
			</g>
			<g>
				<g>
					<path fill="#597F6E" d="M480.574,249.088c7.033,14.802,9.637,31.585,2.517,46.815c-0.141,0.301,0.275,0.558,0.451,0.265
						c8.546-14.225,4.403-33.37-2.61-47.289C480.811,248.639,480.46,248.849,480.574,249.088L480.574,249.088z"/>
				</g>
			</g>
			<path id="XMLID_547_" fill="#F2F5F9" d="M489.727,326.752v11.716c0,46.455-12.231,59.67-12.231,59.67h-37.874
				c0,0-12.231-13.215-12.231-59.67v-11.716H489.727z"/>
		</g>
		<g>
			<g>
				
					<line fill="none" stroke="#544943" stroke-width="1.5" stroke-miterlimit="10" x1="83.047" y1="398.138" x2="115.164" y2="244.149"/>
				
					<line fill="none" stroke="#544943" stroke-width="1.5" stroke-miterlimit="10" x1="147.28" y1="398.138" x2="115.164" y2="244.149"/>
			</g>
			<g>
				
					<line fill="none" stroke="#544943" stroke-width="1.5" stroke-miterlimit="10" x1="407.42" y1="398.138" x2="439.537" y2="244.149"/>
				
					<line fill="none" stroke="#544943" stroke-width="1.5" stroke-miterlimit="10" x1="471.653" y1="398.138" x2="439.537" y2="244.149"/>
			</g>
			<rect x="84.086" y="234.937" fill="#E7EAF2" width="383.624" height="9.213"/>
			<g>
				<path fill="#475577" d="M449.22,217.375H313.655c-2.419,0-4.25-2.186-3.826-4.566l15.576-87.613
					c0.493-2.775,2.906-4.797,5.725-4.797h135.566c2.419,0,4.25,2.186,3.826,4.567l-15.576,87.613
					C454.453,215.354,452.04,217.375,449.22,217.375z"/>
				<path fill="#C0CCD8" d="M452.371,217.375H316.805c-2.419,0-4.25-2.186-3.827-4.566l15.577-87.613
					c0.493-2.775,2.906-4.797,5.725-4.797h135.566c2.419,0,4.25,2.186,3.826,4.567l-15.576,87.613
					C457.603,215.354,455.19,217.375,452.371,217.375z"/>
				<path opacity="0.45" fill="#8E9DB2" d="M427.428,217.375h-78.299c-1.396,0-2.454-1.262-2.21-2.638l8.996-50.603
					c0.285-1.603,1.679-2.771,3.308-2.771h78.299c1.396,0,2.454,1.262,2.21,2.638l-8.997,50.603
					C430.45,216.208,429.056,217.375,427.428,217.375z"/>
				<path fill="#C6D2E0" d="M429.303,217.375h-78.299c-1.396,0-2.454-1.262-2.21-2.638l8.997-50.603
					c0.285-1.603,1.679-2.771,3.307-2.771h78.299c1.396,0,2.454,1.262,2.21,2.638l-8.996,50.603
					C432.326,216.208,430.932,217.375,429.303,217.375z"/>
				<rect x="380.171" y="187.615" fill="#8E9DB2" width="31.776" height="29.76"/>
				<path fill="#475577" d="M410.128,187.615h-29.957v8.548l8.179,33.94h31.796L410.128,187.615z M402.438,221.049
					c-3.561,0-7.326-4.153-8.409-9.277c-1.083-5.123,0.925-9.276,4.486-9.276s7.326,4.153,8.41,9.276
					C408.008,216.896,406,221.049,402.438,221.049z"/>
				<path fill="#475577" d="M362.646,230.104h71.185v4.833h-76.019l0,0C357.812,232.268,359.976,230.104,362.646,230.104z"/>
				<rect x="376.921" y="230.104" fill="#C0CCD8" width="56.909" height="4.833"/>
				<path fill="#C0CCD8" d="M411.967,187.615h-31.796l10.018,42.489h31.796L411.967,187.615z M404.163,221.049
					c-3.562,0-7.326-4.153-8.41-9.277c-1.083-5.123,0.926-9.276,4.487-9.276c3.561,0,7.326,4.153,8.409,9.276
					C409.732,216.896,407.723,221.049,404.163,221.049z"/>
				<g opacity="0.65">
					<polygon fill="#8E9DB2" points="337.717,129.027 335.834,139.617 337.717,139.617 339.6,129.027 					"/>
					<polygon fill="#8E9DB2" points="343.167,129.027 341.284,139.617 343.167,139.617 345.05,129.027 					"/>
					<polygon fill="#8E9DB2" points="348.617,129.027 346.734,139.617 348.617,139.617 350.5,129.027 					"/>
					<polygon fill="#8E9DB2" points="354.067,129.027 352.184,139.617 354.067,139.617 355.95,129.027 					"/>
					<polygon fill="#8E9DB2" points="359.516,129.027 357.633,139.617 359.516,139.617 361.399,129.027 					"/>
				</g>
				<g opacity="0.65">
					<polygon fill="#8E9DB2" points="409.247,129.027 407.364,139.617 409.247,139.617 411.129,129.027 					"/>
					<polygon fill="#8E9DB2" points="414.973,129.027 413.09,139.617 414.973,139.617 416.856,129.027 					"/>
					<polygon fill="#8E9DB2" points="420.701,129.027 418.818,139.617 420.701,139.617 422.583,129.027 					"/>
					<polygon fill="#8E9DB2" points="426.427,129.027 424.544,139.617 426.427,139.617 428.31,129.027 					"/>
					<polygon fill="#8E9DB2" points="432.155,129.027 430.272,139.617 432.155,139.617 434.038,129.027 					"/>
					<polygon fill="#8E9DB2" points="437.881,129.027 435.999,139.617 437.881,139.617 439.764,129.027 					"/>
					<polygon fill="#8E9DB2" points="443.609,129.027 441.726,139.617 443.609,139.617 445.492,129.027 					"/>
					<polygon fill="#8E9DB2" points="449.335,129.027 447.453,139.617 449.335,139.617 451.218,129.027 					"/>
					<polygon fill="#8E9DB2" points="455.063,129.027 453.18,139.617 455.063,139.617 456.946,129.027 					"/>
					<polygon fill="#8E9DB2" points="460.79,129.027 458.907,139.617 460.79,139.617 462.672,129.027 					"/>
				</g>
			</g>
			<g>
				<g opacity="0.55">
					<linearGradient id="SVGID_1_" gradientUnits="userSpaceOnUse" x1="204.8213" y1="210.9297" x2="204.8213" y2="183.3257">
						<stop  offset="0" style="stop-color:#FFFFFF;stop-opacity:0.1"/>
						<stop  offset="1" style="stop-color:#FFFFFF;stop-opacity:0.4"/>
					</linearGradient>
					<path fill="url(#SVGID_1_)" d="M192.147,210.93c0,0,0.884-0.163,1.244-0.663c0.743-1.032-0.487-2.125-1.288-2.637
						c-1.026-0.655-2.44-0.879-2.938-2.141c-0.561-1.424,0.411-2.999,1.585-3.775c0.988-0.654,2.148-0.984,3.257-1.4
						c1.235-0.464,2.486-1.208,3.212-2.368c0.905-1.446,0.723-3.31,0.841-4.94c0.464-6.383,6.987-9.546,12.485-9.677
						c2.747-0.065,6.945,0.919,8.772,3.055c0.612,0.716,1.078,1.567,1.254,2.498c0.271,1.439-0.285,2.769-1.222,3.845
						c-0.941,1.081-2.239,1.708-3.27,2.68c-1.065,1.004-0.307,2.062-0.55,3.258c-0.271,1.331-1.163,1.898-2.319,2.542
						c-2.439,1.36-5.309,1.699-7.963,2.439c-0.826,0.23-1.661,0.51-2.329,1.047c-0.866,0.697-1.357,1.744-2.015,2.641
						c-1.195,1.633-3.012,2.798-4.995,3.204"/>
				</g>
				<g>
					<g>
						<path fill="#E8EAEF" d="M207.436,226.996h-5.213v-2.486h5.213c1.679,0,3.046-1.366,3.046-3.046v-4.285
							c0-1.68-1.367-3.045-3.046-3.045h-5.213v-2.486h5.213c3.05,0,5.532,2.481,5.532,5.531v4.285
							C212.967,224.514,210.486,226.996,207.436,226.996z"/>
					</g>
				</g>
				<path fill="#E8EAEF" d="M200.007,233.539h-8.789c-3.382,0-6.124-2.742-6.124-6.124v-19.29h21.036v19.29
					C206.13,230.797,203.389,233.539,200.007,233.539z"/>
				<path fill="#C6D2E0" d="M181.69,229.989c0,0,0.204,4.947,7.893,4.947h12.059c7.689,0,7.893-4.947,7.893-4.947H181.69z"/>
			</g>
			<g id="XMLID_30_">
				<g id="XMLID_96_">
					<g>
						<rect id="XMLID_143_" x="239.447" y="232.959" fill="#475577" width="111.281" height="1.978"/>
						<rect id="XMLID_142_" x="243.252" y="231.364" fill="#475577" width="7.975" height="1.595"/>
						<rect id="XMLID_141_" x="255.323" y="231.364" fill="#475577" width="7.975" height="1.595"/>
						<rect id="XMLID_140_" x="267.395" y="231.364" fill="#475577" width="7.975" height="1.595"/>
						<rect id="XMLID_139_" x="279.466" y="231.364" fill="#475577" width="7.975" height="1.595"/>
						<rect id="XMLID_138_" x="291.537" y="231.364" fill="#475577" width="7.975" height="1.595"/>
						<rect id="XMLID_137_" x="303.608" y="231.364" fill="#475577" width="7.975" height="1.595"/>
						<rect id="XMLID_136_" x="315.679" y="231.364" fill="#475577" width="7.976" height="1.595"/>
						<rect id="XMLID_135_" x="327.75" y="231.364" fill="#475577" width="7.975" height="1.595"/>
						<rect id="XMLID_134_" x="339.822" y="231.364" fill="#475577" width="7.975" height="1.595"/>
					</g>
				</g>
				<g id="XMLID_51_">
					<g>
						<rect id="XMLID_133_" x="240.903" y="232.959" fill="#C0CCD8" width="111.281" height="1.978"/>
						<rect id="XMLID_132_" x="244.708" y="231.364" fill="#C0CCD8" width="7.975" height="1.595"/>
						<rect id="XMLID_131_" x="256.78" y="231.364" fill="#C0CCD8" width="7.975" height="1.595"/>
						<rect id="XMLID_129_" x="268.851" y="231.364" fill="#C0CCD8" width="7.975" height="1.595"/>
						<rect id="XMLID_127_" x="280.922" y="231.364" fill="#C0CCD8" width="7.975" height="1.595"/>
						<rect id="XMLID_122_" x="292.994" y="231.364" fill="#C0CCD8" width="7.975" height="1.595"/>
						<rect id="XMLID_121_" x="305.065" y="231.364" fill="#C0CCD8" width="7.975" height="1.595"/>
						<rect id="XMLID_120_" x="317.135" y="231.364" fill="#C0CCD8" width="7.976" height="1.595"/>
						<rect id="XMLID_119_" x="329.207" y="231.364" fill="#C0CCD8" width="7.976" height="1.595"/>
						<rect id="XMLID_118_" x="341.278" y="231.364" fill="#C0CCD8" width="7.976" height="1.595"/>
					</g>
				</g>
			</g>
		</g>
		<g>
			<g>
				<path fill="#8EBCA2" d="M82.557,309.585c1.383-5.488,0.769-11.459-1.704-16.55c-2.473-5.092-6.785-9.267-11.954-11.573
					c-2.106-0.939-4.366-1.59-6.273-2.886c-0.373,2.73-0.544,5.488-0.511,8.243c0.033,2.726,0.273,5.488,1.219,8.044
					c2.443,6.607,9.079,10.669,15.619,13.287"/>
			</g>
			<g>
				<g>
					<path fill="#597F6E" d="M83.358,327.302c0.203-12.785,0.37-27.388-9.689-36.91c-0.159-0.15-0.377,0.075-0.237,0.237
						c4.511,5.244,7.744,11.579,8.704,18.479c0.84,6.032,0.503,12.138,0.996,18.193C83.144,327.445,83.356,327.45,83.358,327.302
						L83.358,327.302z"/>
				</g>
			</g>
			<g>
				<path fill="#8EBCA2" d="M67.012,344.073c-0.961-7.59-5.174-14.713-11.362-19.211c-3.051-2.218-6.563-3.782-10.235-4.627
					c-2.072-0.477-11.644,0.021-11.644,0.021s2.03,7.094,4.384,10.498C43.645,338.691,53.266,344.724,67.012,344.073"/>
			</g>
			<g>
				<path fill="#A2CCB6" d="M58.641,319.63c-0.249-4.593-1.093-9.151-2.505-13.514c-0.567-1.754-1.232-3.489-2.208-5.038
					c-3.158-5.016-9.073-7.362-14.763-8.395c-0.07,4.843,0.484,9.934,3.146,13.914c1.177,1.761,2.716,3.224,4.271,4.634
					C49.67,314.031,55.325,317.128,58.641,319.63"/>
			</g>
			<g>
				<path fill="#A2CCB6" d="M90.946,302.903c-0.891-6.117-1.716-12.688,1.067-18.208c0.998-1.979,2.417-3.716,3.961-5.306
					c3.738-3.848,8.629-7.028,13.994-7.037c0.964,5.73-0.2,11.794-3.218,16.76C103.732,294.078,96.476,301.12,90.946,302.903"/>
			</g>
			<g>
				<path fill="#A2CCB6" d="M81.118,338.445c5.689,1.179,11.844-0.094,16.599-3.432s8.043-8.693,8.869-14.444
					c0.036-0.255,0.058-0.547-0.115-0.738c-0.164-0.182-0.438-0.199-0.683-0.2C95.956,319.58,83.747,328.97,81.118,338.445"/>
			</g>
			<g>
				<path fill="#A2CCB6" d="M60.887,316.326c8.101-4.561,13.306-13.695,13.459-23.622c-5.848-0.325-10.25,3.273-12.797,6.375
					C58.003,303.397,57.704,310.986,60.887,316.326"/>
			</g>
			<g>
				<path fill="#A2CCB6" d="M66.774,332.349c-2.164-5.39-1.484-11.831,1.757-16.65c3.242-4.818,8.952-7.876,14.759-7.903
					c0.241-0.001,0.521,0.021,0.66,0.219c0.083,0.117,0.094,0.269,0.1,0.412c0.223,4.977-1.967,9.827-5.105,13.695
					c-3.138,3.869-7.179,6.891-11.233,9.785"/>
			</g>
			<g>
				<g>
					<path fill="#597F6E" d="M99.824,288.669c-10.793,10.254-14.571,26.691-17.438,40.739c-3.312,16.228-5.167,33.062-5.78,49.608
						c-0.011,0.283,0.397,0.268,0.43,0c1.939-16.199,2.703-32.443,5.879-48.491c2.833-14.318,6.47-30.94,17.113-41.651
						C100.16,288.741,99.959,288.541,99.824,288.669L99.824,288.669z"/>
				</g>
			</g>
			<g>
				<g>
					<path fill="#597F6E" d="M66.766,340.919c-0.173-4.858,0.654-9.241,1.75-13.943c0.045-0.195-0.236-0.334-0.335-0.142
						c-2.035,3.924-2.623,9.829-1.898,14.15C66.329,341.259,66.776,341.193,66.766,340.919L66.766,340.919z"/>
				</g>
			</g>
			<g>
				<g>
					<path fill="#597F6E" d="M67.44,299.566c-6.475,5.869-8.128,18.17-5.484,26.141c0.065,0.195,0.355,0.117,0.309-0.085
						c-1.915-8.324-1.285-19.629,5.248-25.983C67.559,299.593,67.488,299.522,67.44,299.566L67.44,299.566z"/>
				</g>
			</g>
			<g>
				<g>
					<path fill="#597F6E" d="M69.797,369.102c0.354-11.283-1.506-23.118-4.613-33.938c-3.064-10.672-7.967-22.245-16.114-30.075
						c-0.229-0.222-0.535,0.104-0.342,0.342c3.632,4.493,7.008,8.935,9.676,14.088c2.725,5.263,4.816,10.836,6.422,16.536
						c3.063,10.869,3.925,21.839,4.596,33.048C69.437,369.342,69.79,369.345,69.797,369.102L69.797,369.102z"/>
				</g>
			</g>
			<path id="XMLID_5_" fill="#F2F5F9" d="M102.884,349.442v7.992c0,31.689-10.506,40.703-10.506,40.703H59.845
				c0,0-10.506-9.014-10.506-40.703v-7.992H102.884z"/>
		</g>
		
			<line fill="none" stroke="#475577" stroke-width="2" stroke-miterlimit="10" x1="31.473" y1="398.138" x2="541.918" y2="398.138"/>
	</g>
</g>
<g id="DESIGNED_BY_FREEPIK" display="none">
	<g display="inline">
		<g id="XMLID_1_">
			<g id="XMLID_21_">
				<path id="XMLID_29_" fill="#1D262D" d="M296.8,422.241c-0.433,0.442-0.804,0.931-1.108,1.452l-0.466-0.24
					c-0.066-0.298-0.349-0.503-0.658-0.467c-0.331,0.039-0.568,0.339-0.529,0.67s0.339,0.568,0.67,0.529
					c0.065-0.008,0.127-0.026,0.184-0.053l0.451,0.234c-0.251,0.554-0.433,1.139-0.539,1.744l0.746,0.131
					c0.23-1.306,0.85-2.506,1.792-3.472L296.8,422.241z"/>
				<path id="XMLID_28_" fill="#1D262D" d="M302.288,419.938c-0.171,0-0.341,0.007-0.51,0.018l-0.073-0.626
					c0.188-0.149,0.296-0.39,0.266-0.645c-0.046-0.394-0.402-0.675-0.795-0.629c-0.394,0.047-0.675,0.402-0.629,0.796
					c0.03,0.254,0.189,0.461,0.405,0.563l0.073,0.624c-0.714,0.116-1.403,0.332-2.06,0.646l0.327,0.684
					c0.934-0.447,1.941-0.673,2.995-0.673c0.496,0,0.993,0.053,1.475,0.157l0.161-0.741
					C303.388,419.998,302.838,419.938,302.288,419.938z"/>
				<path id="XMLID_27_" fill="#1D262D" d="M308.89,422.486c0.331-0.041,0.566-0.342,0.525-0.673
					c-0.04-0.331-0.342-0.565-0.672-0.525c-0.31,0.038-0.535,0.304-0.53,0.608l-0.416,0.363c-0.418-0.43-0.89-0.813-1.408-1.139
					l-0.403,0.641c1.134,0.715,2.021,1.727,2.563,2.926l0.69-0.313c-0.251-0.555-0.567-1.072-0.942-1.545l0.402-0.352
					C308.76,422.491,308.825,422.494,308.89,422.486z"/>
				<path id="XMLID_26_" fill="#1D262D" d="M301.74,430.147c-0.386,0.023-0.774,0.034-1.157,0.034c-0.88,0-1.732-0.061-2.478-0.179
					c-0.391-0.063-0.847-0.155-1.271-0.292c1.046,1.86,3.069,3.125,5.389,3.125c2.855,0,5.262-1.916,5.949-4.504
					c-0.682,0.449-1.506,0.825-2.459,1.123C304.535,429.822,303.16,430.062,301.74,430.147z"/>
				<path id="XMLID_22_" fill="#1D262D" d="M302.288,421.455c-3.353,0-6.079,2.666-6.079,5.943c0,0.426,0.046,0.849,0.137,1.262
					c0.674,0.482,2.706,0.89,5.348,0.73c2.879-0.173,5.297-0.957,6.672-2.158c-0.005-0.195-0.021-0.391-0.045-0.582
					C307.94,423.688,305.346,421.455,302.288,421.455z M300.128,427.97c-1.021,0-1.85-0.83-1.85-1.85c0-1.021,0.829-1.85,1.85-1.85
					c1.02,0,1.85,0.829,1.85,1.85C301.978,427.14,301.148,427.97,300.128,427.97z M304.866,427.062c-0.75,0-1.36-0.61-1.36-1.36
					s0.61-1.36,1.36-1.36s1.36,0.61,1.36,1.36S305.616,427.062,304.866,427.062z"/>
			</g>
			<path id="XMLID_19_" fill="#1D262D" d="M318.292,423.322c-0.295-0.116-0.806-0.309-1.383-0.237
				c-0.551,0.068-0.844,0.341-0.844,1.007v0.865h2.228v1.718h-2.228v5.454h-1.932v-5.454h-1.34v-1.718h1.34v-0.888
				c0-1.681,0.896-2.783,2.568-2.783c0.643,0,1.157,0.122,1.59,0.309V423.322z"/>
			<path id="XMLID_17_" fill="#1D262D" d="M322.994,426.654c-0.177-0.03-0.357-0.047-0.526-0.047c-0.896,0-1.51,0.548-1.51,1.614
				v3.907h-1.932v-7.172h1.873v0.785c0.451-0.674,1.14-0.978,2.021-0.978c0.414,0,0.848,0.128,1.094,0.337L322.994,426.654z"/>
			<path id="XMLID_14_" fill="#1D262D" d="M330.661,428.532c0,0.222-0.015,0.488-0.037,0.651h-5.084
				c0.207,1.036,0.933,1.487,1.843,1.487c0.621,0,1.295-0.251,1.813-0.688l1.132,1.243c-0.813,0.747-1.851,1.088-3.057,1.088
				c-2.198,0-3.723-1.495-3.723-3.753c0-2.257,1.48-3.797,3.627-3.797C329.24,424.765,330.654,426.297,330.661,428.532z
				 M325.546,427.866h3.175c-0.177-0.918-0.732-1.437-1.562-1.437C326.25,426.43,325.717,426.978,325.546,427.866z"/>
			<path id="XMLID_11_" fill="#1D262D" d="M338.314,428.532c0,0.222-0.015,0.488-0.037,0.651h-5.084
				c0.207,1.036,0.933,1.487,1.843,1.487c0.621,0,1.295-0.251,1.813-0.688l1.132,1.243c-0.814,0.747-1.851,1.088-3.057,1.088
				c-2.198,0-3.723-1.495-3.723-3.753c0-2.257,1.48-3.797,3.626-3.797C336.893,424.765,338.307,426.297,338.314,428.532z
				 M333.2,427.866h3.176c-0.178-0.918-0.733-1.437-1.563-1.437C333.903,426.43,333.37,426.978,333.2,427.866z"/>
			<path id="XMLID_8_" fill="#1D262D" d="M346.66,428.54c0,2.153-1.495,3.774-3.471,3.774c-0.963,0-1.644-0.378-2.109-0.933v3.708
				h-1.925v-10.133h1.888v0.792c0.466-0.585,1.154-0.984,2.139-0.984C345.165,424.765,346.66,426.386,346.66,428.54z
				 M340.983,428.54c0,1.132,0.748,1.976,1.843,1.976c1.14,0,1.851-0.881,1.851-1.976c0-1.096-0.711-1.977-1.851-1.977
				C341.731,426.563,340.983,427.407,340.983,428.54z"/>
			<path id="XMLID_4_" fill="#1D262D" d="M349.763,422.611c0,0.695-0.54,1.229-1.235,1.229c-0.696,0-1.229-0.533-1.229-1.229
				c0-0.696,0.533-1.244,1.229-1.244C349.223,421.367,349.763,421.915,349.763,422.611z M349.504,432.129h-1.932v-7.172h1.932
				V432.129z"/>
			<path id="XMLID_2_" fill="#1D262D" d="M352.728,427.511l2.701-2.554h2.369l-3.479,3.375l3.501,3.797h-2.376l-2.716-2.901v2.901
				h-1.932v-10.657h1.932V427.511z"/>
		</g>
		<g>
			<path fill="#1D262D" d="M221.108,432.064v-1.055c-0.527,0.718-1.391,1.23-2.388,1.23c-1.846,0-3.149-1.406-3.149-3.706
				c0-2.256,1.29-3.721,3.149-3.721c0.953,0,1.816,0.469,2.388,1.245v-3.765h1.099v9.771H221.108z M221.108,430.146v-3.208
				c-0.396-0.615-1.245-1.143-2.124-1.143c-1.421,0-2.271,1.172-2.271,2.739s0.85,2.725,2.271,2.725
				C219.863,431.259,220.713,430.761,221.108,430.146z"/>
			<path fill="#1D262D" d="M223.627,428.52c0-2.051,1.465-3.706,3.487-3.706c2.138,0,3.398,1.67,3.398,3.794v0.278h-5.728
				c0.088,1.333,1.025,2.446,2.549,2.446c0.806,0,1.626-0.322,2.183-0.894l0.527,0.718c-0.703,0.703-1.655,1.084-2.813,1.084
				C225.136,432.24,223.627,430.731,223.627,428.52z M227.099,425.722c-1.509,0-2.256,1.274-2.314,2.358h4.644
				C229.414,427.025,228.71,425.722,227.099,425.722z"/>
			<path fill="#1D262D" d="M231.303,431.127l0.571-0.791c0.469,0.542,1.362,1.011,2.329,1.011c1.084,0,1.67-0.513,1.67-1.216
				c0-1.714-4.38-0.659-4.38-3.281c0-1.099,0.952-2.036,2.637-2.036c1.202,0,2.051,0.454,2.623,1.025l-0.513,0.762
				c-0.424-0.513-1.201-0.894-2.109-0.894c-0.967,0-1.567,0.483-1.567,1.113c0,1.553,4.379,0.527,4.379,3.281
				c0,1.187-0.952,2.139-2.783,2.139C233.002,432.24,232.021,431.889,231.303,431.127z"/>
			<path fill="#1D262D" d="M238.173,423.246c0-0.41,0.337-0.747,0.732-0.747c0.41,0,0.747,0.337,0.747,0.747
				s-0.337,0.732-0.747,0.732C238.51,423.979,238.173,423.656,238.173,423.246z M238.363,432.064v-7.075h1.099v7.075H238.363z"/>
			<path fill="#1D262D" d="M241.278,433.881l0.556-0.82c0.586,0.703,1.289,0.967,2.3,0.967c1.172,0,2.27-0.571,2.27-2.124v-1.011
				c-0.512,0.718-1.376,1.26-2.373,1.26c-1.845,0-3.149-1.377-3.149-3.662c0-2.271,1.289-3.677,3.149-3.677
				c0.952,0,1.802,0.469,2.373,1.245v-1.069h1.099v6.87c0,2.344-1.641,3.076-3.369,3.076
				C242.933,434.936,242.113,434.701,241.278,433.881z M246.404,430.028v-3.091c-0.381-0.615-1.23-1.143-2.109-1.143
				c-1.421,0-2.271,1.128-2.271,2.695c0,1.553,0.849,2.695,2.271,2.695C245.174,431.186,246.023,430.644,246.404,430.028z"/>
			<path fill="#1D262D" d="M254.109,432.064v-4.629c0-1.245-0.629-1.641-1.582-1.641c-0.865,0-1.685,0.527-2.095,1.099v5.171h-1.099
				v-7.075h1.099v1.025c0.498-0.586,1.464-1.201,2.519-1.201c1.479,0,2.256,0.747,2.256,2.285v4.966H254.109z"/>
			<path fill="#1D262D" d="M256.628,428.52c0-2.051,1.465-3.706,3.486-3.706c2.138,0,3.398,1.67,3.398,3.794v0.278h-5.728
				c0.088,1.333,1.025,2.446,2.549,2.446c0.806,0,1.626-0.322,2.183-0.894l0.527,0.718c-0.703,0.703-1.655,1.084-2.813,1.084
				C258.137,432.24,256.628,430.731,256.628,428.52z M260.1,425.722c-1.509,0-2.256,1.274-2.314,2.358h4.643
				C262.414,427.025,261.711,425.722,260.1,425.722z"/>
			<path fill="#1D262D" d="M270.046,432.064v-1.055c-0.527,0.718-1.392,1.23-2.388,1.23c-1.845,0-3.148-1.406-3.148-3.706
				c0-2.256,1.289-3.721,3.148-3.721c0.952,0,1.817,0.469,2.388,1.245v-3.765h1.098v9.771H270.046z M270.046,430.146v-3.208
				c-0.396-0.615-1.245-1.143-2.124-1.143c-1.421,0-2.271,1.172-2.271,2.739s0.85,2.725,2.271,2.725
				C268.801,431.259,269.65,430.761,270.046,430.146z"/>
			<path fill="#1D262D" d="M276.388,432.064v-9.771h1.099v3.765c0.572-0.776,1.421-1.245,2.388-1.245
				c1.846,0,3.149,1.465,3.149,3.721c0,2.3-1.304,3.706-3.149,3.706c-0.996,0-1.86-0.513-2.388-1.23v1.055H276.388z
				 M279.596,431.259c1.436,0,2.286-1.157,2.286-2.725s-0.85-2.739-2.286-2.739c-0.864,0-1.729,0.527-2.109,1.143v3.208
				C277.867,430.761,278.731,431.259,279.596,431.259z"/>
			<path fill="#1D262D" d="M284.224,433.837c0.161,0.073,0.425,0.117,0.601,0.117c0.483,0,0.805-0.161,1.055-0.747l0.468-1.069
				l-2.959-7.148h1.187l2.358,5.801l2.344-5.801h1.201l-3.545,8.511c-0.425,1.025-1.143,1.421-2.08,1.436
				c-0.234,0-0.601-0.044-0.806-0.103L284.224,433.837z"/>
		</g>
	</g>
</g>
</svg>
